<?xml version="1.0"?>
<svg xmlns:rdf="http://www.w3.org/1999/02/22-rdf-syntax-ns#" xmlns="http://www.w3.org/2000/svg" xmlns:cc="http://creativecommons.org/ns#" xmlns:xlink="http://www.w3.org/1999/xlink" xmlns:dc="http://purl.org/dc/elements/1.1/" xmlns:svg="http://www.w3.org/2000/svg" id="svg2965" viewBox="0 0 166.37 168.47" version="1.1">
  <defs id="defs2967">
    <linearGradient id="linearGradient5440" y2="-148.13" gradientUnits="userSpaceOnUse" y1="-298.54" x2="387.75" x1="379.92">
      <stop id="stop3954" stop-color="#0146a8" offset="0"/>
      <stop id="stop3956" stop-color="#0146a8" stop-opacity="0" offset="1"/>
    </linearGradient>
    <linearGradient id="linearGradient3913" x1="381.89" gradientUnits="userSpaceOnUse" x2="387.75" gradientTransform="matrix(.93571 0 0 .97143 738.55 1229)" y1="-310.05" y2="-147.97">
      <stop id="stop3919-13" stop-color="#edf4fd" stop-opacity=".52846" offset="0"/>
      <stop id="stop3921-7" stop-color="#175bb3" stop-opacity="0" offset="1"/>
    </linearGradient>
  </defs>
  <g id="layer1" transform="translate(-360.44 -391.6)">
    <g id="g5434" stroke-width="1.9" transform="matrix(.75853 0 0 .75853 -391.8 -301.73)">
      <path id="path5075" transform="matrix(1 0 0 1.0126 713.63 1236.2)" fill="#103683" d="m497.42-208.45c0 60.568-49.1 109.67-109.67 109.67-60.568 0-109.67-49.1-109.67-109.67 0-60.568 49.1-109.67 109.67-109.67 60.568 0 109.67 49.1 109.67 109.67z"/>
      <path id="path5077" transform="matrix(.93571 0 0 .97143 738.55 1229)" fill="url(#linearGradient5440)" d="m497.42-208.45c0 60.568-49.1 109.67-109.67 109.67-60.568 0-109.67-49.1-109.67-109.67 0-60.568 49.1-109.67 109.67-109.67 60.568 0 109.67 49.1 109.67 109.67z"/>
      <path id="rect5206" fill="#eee" d="m1041.3 970.9c-6.648 0-12 5.352-12 12v60.594c0 6.648 5.352 12 12 12h71.469c9.4698 13.27 33.775 47.244 34 46.344 0.228-0.9103 0.5782-33.044 0.7188-46.344h10.812c6.648 0 12-5.352 12-12v-60.594c0-6.648-5.352-12-12-12h-117zm17.812 25.281c1.6844 0.00003 3.1964 0.24203 4.5312 0.71875 1.3509 0.47677 2.4539 1.1045 3.3438 1.9062 0.9057 0.80184 1.6017 1.7124 2.0625 2.6875 0.4768 0.9752 0.7187 1.912 0.7187 2.8438 0 1.0185-0.2728 1.8499-0.7812 2.5-0.4927 0.6501-1.2033 0.9688-2.125 0.9687-0.6674 0.0001-1.242-0.2611-1.7188-0.7812-0.4607-0.5201-0.99-1.2723-1.5937-2.3125-0.4927-0.8668-1.0516-1.5737-1.7187-2.0938-0.6676-0.52-1.5747-0.7812-2.7188-0.7812-1.1759 0-2.1589 0.3378-2.9375 1.0312-0.7787 0.6718-1.1563 1.5128-1.1563 2.5313 0 0.9318 0.2717 1.7057 0.8438 2.3125 0.572 0.5851 1.3431 1.0787 2.3125 1.4687 0.9694 0.3901 2.2997 0.8741 4 1.4375 2.0182 0.6718 3.6662 1.4745 4.9375 2.4063 1.2872 0.9318 2.2548 2.0339 2.9062 3.3125 0.6676 1.2569 1 2.6872 1 4.3125 0 2.4488-0.4385 4.5572-1.3124 6.3125-0.8741 1.7336-2.1589 3.0586-3.875 3.9687-1.7005 0.8885-3.7716 1.3438-6.2188 1.3438-2.336 0-4.3314-0.4936-6-1.4688-1.6686-0.9751-2.9241-2.2043-3.7188-3.6562-0.7944-1.4736-1.1874-2.9327-1.1874-4.4063 0-0.9751 0.2727-1.8065 0.7812-2.5 0.5085-0.6934 1.1276-1.0624 1.9062-1.0625 0.6836 0.0001 1.2283 0.2325 1.5938 0.6875 0.3655 0.4551 0.6977 1.1141 1.0312 1.9375 0.6676 1.582 1.4846 2.7511 2.4063 3.5313 0.9375 0.7801 2.2075 1.1875 3.8125 1.1875 1.303 0 2.3612-0.4074 3.1875-1.1875 0.8422-0.8018 1.25-1.7002 1.25-2.7188 0-1.5602-0.4386-2.7223-1.3125-3.4375-0.8581-0.7151-2.2637-1.3811-4.25-2.0312-2.2406-0.7585-4.0857-1.5515-5.5-2.375-1.3984-0.8451-2.5015-1.9473-3.3438-3.3125-0.842-1.3652-1.2812-3.0376-1.2812-5.0313 0-1.7769 0.4089-3.4805 1.1875-5.0625 0.7786-1.5819 1.9278-2.8181 3.4375-3.75 1.5255-0.95345 3.3548-1.4375 5.5-1.4375zm20.156 0c0.89 0.00003 1.6308 0.42654 2.2188 1.25 0.6037 0.80184 0.9062 1.9135 0.9062 3.3438v0.8437c1.1284-1.8419 2.3379-3.1956 3.625-4.0625 1.2873-0.86678 2.7081-1.3125 4.2813-1.3125 1.6368 0.00003 3.0429 0.4553 4.2187 1.3438 1.176 0.88853 2.1434 2.2326 2.9063 4.0312 1.0964-1.8202 2.2757-3.1644 3.5313-4.0312 1.2552-0.88845 2.6619-1.3437 4.1874-1.3438 1.7799 0.00003 3.3066 0.48403 4.5938 1.4375 1.2872 0.95352 2.2393 2.3168 2.875 4.0938 0.5561 1.6036 0.8436 4.1169 0.8438 7.5625v17.344c-0.0003 1.8637-0.3178 3.2557-0.9376 4.1875-0.6196 0.9319-1.4205 1.4063-2.4374 1.4063-0.9854 0-1.8019-0.4744-2.4376-1.4063-0.6196-0.9535-0.9374-2.3455-0.9374-4.1875v-14.938c0-1.9069-0.06-3.4139-0.1876-4.5625-0.1109-1.1485-0.4443-2.1261-0.9687-2.9062s-1.3103-1.1562-2.375-1.1563c-0.8581 0.0001-1.6589 0.3379-2.4375 1.0313-0.7628 0.6935-1.3834 1.6111-1.8125 2.7812-0.4767 1.4953-0.7187 4.1452-0.7187 7.9375v11.812c0 1.8637-0.2866 3.2557-0.9063 4.1875-0.6198 0.9319-1.4518 1.4063-2.4687 1.4063-0.9854 0-1.7866-0.4744-2.4063-1.4063-0.6039-0.9318-0.9063-2.3238-0.9063-4.1875v-14.156c0-2.2321-0.045-3.9523-0.1562-5.1875-0.1111-1.2352-0.4138-2.2511-0.9062-3.0313-0.4927-0.8017-1.2791-1.1874-2.3438-1.1875-2.1294 0.0001-3.5353 0.9751-4.2188 2.9688-0.6673 1.9937-1 4.8664-1 8.5937v12c0 1.842-0.3178 3.234-0.9374 4.1875-0.604 0.9319-1.4052 1.4063-2.4063 1.4063-0.9852 0-1.8018-0.4744-2.4375-1.4063-0.6197-0.9535-0.9064-2.3455-0.9062-4.1875v-25.406c0-1.6686 0.2564-2.9144 0.8124-3.7813 0.5723-0.86678 1.3284-1.3125 2.25-1.3125zm49.531 0c1.6844 0.00003 3.1965 0.24203 4.5313 0.71875 1.3507 0.47677 2.4851 1.1045 3.375 1.9062 0.9057 0.80184 1.5704 1.7124 2.0312 2.6875 0.4767 0.9752 0.7186 1.912 0.7188 2.8438-0.0002 1.0185-0.2416 1.8499-0.75 2.5-0.4927 0.6501-1.2034 0.9688-2.125 0.9687-0.6675 0.0001-1.2421-0.2611-1.7188-0.7812-0.4608-0.5201-0.9899-1.2723-1.5938-2.3125-0.4925-0.8668-1.0826-1.5737-1.75-2.0938-0.6674-0.52-1.5746-0.7812-2.7187-0.7812-1.176 0-2.1588 0.3378-2.9375 1.0312-0.7786 0.6718-1.1563 1.5128-1.1562 2.5313 0 0.9318 0.2717 1.7057 0.8437 2.3125 0.5721 0.5851 1.3431 1.0787 2.3125 1.4687 0.9693 0.3901 2.2997 0.8741 4 1.4375 2.0182 0.6718 3.6662 1.4745 4.9375 2.4063 1.2872 0.9318 2.2547 2.0339 2.9063 3.3125 0.6674 1.2569 0.9999 2.6872 1 4.3125 0 2.4488-0.4386 4.5572-1.3126 6.3125-0.874 1.7336-2.1588 3.0586-3.875 3.9687-1.7002 0.8885-3.7715 1.3438-6.2187 1.3438-2.3359 0-4.3314-0.4936-6-1.4688-1.6686-0.9751-2.8929-2.2043-3.6875-3.6562-0.7945-1.4736-1.2187-2.9327-1.2188-4.4063 0-0.9751 0.2728-1.8065 0.7813-2.5 0.5084-0.6934 1.1589-1.0624 1.9375-1.0625 0.6833 0.0001 1.197 0.2325 1.5625 0.6875 0.3654 0.4551 0.7288 1.1141 1.0625 1.9375 0.6674 1.582 1.4532 2.7511 2.375 3.5313 0.9375 0.7801 2.2074 1.1875 3.8125 1.1875 1.303 0 2.3613-0.4074 3.1875-1.1875 0.8422-0.8018 1.2813-1.7002 1.2812-2.7188 0-1.5602-0.4385-2.7223-1.3124-3.4375-0.8582-0.7151-2.295-1.3811-4.2813-2.0312-2.2407-0.7585-4.0544-1.5515-5.4687-2.375-1.3984-0.8451-2.5328-1.9473-3.375-3.3125-0.8423-1.3652-1.25-3.0376-1.25-5.0313 0-1.7769 0.3776-3.4805 1.1562-5.0625 0.7786-1.5819 1.9278-2.8181 3.4375-3.75 1.5255-0.95345 3.3548-1.4375 5.5-1.4375z"/>
      <path id="path5079" fill="url(#linearGradient3913)" d="m1101.4 919.93c-56.674 0-102.62 47.725-102.62 106.56 0 3.7524 0.1979 7.4415 0.5625 11.094 50.067 18.726 126.58 32.369 204.69-10.594 0.0008-0.1669 0-0.3329 0-0.5 0-58.837-45.951-106.56-102.62-106.56z"/>
    </g>
  </g>
  <metadata>
    <rdf:RDF>
      <cc:Work>
        <dc:format>image/svg+xml</dc:format>
        <dc:type rdf:resource="http://purl.org/dc/dcmitype/StillImage"/>
        <cc:license rdf:resource="http://creativecommons.org/licenses/publicdomain/"/>
        <dc:publisher>
          <cc:Agent rdf:about="http://openclipart.org/">
            <dc:title>Openclipart</dc:title>
          </cc:Agent>
        </dc:publisher>
        <dc:title>sms-blue</dc:title>
        <dc:date>2010-08-04T13:04:35</dc:date>
        <dc:description>Single web 2.0  icons from my set. check the whole set in my clip art if you want get all of it together.</dc:description>
        <dc:source>http://openclipart.org/detail/77389/sms-blue-by-shokunin</dc:source>
        <dc:creator>
          <cc:Agent>
            <dc:title>shokunin</dc:title>
          </cc:Agent>
        </dc:creator>
        <dc:subject>
          <rdf:Bag>
            <rdf:li>arrow</rdf:li>
            <rdf:li>chat</rdf:li>
            <rdf:li>clip art</rdf:li>
            <rdf:li>clipart</rdf:li>
            <rdf:li>communicator</rdf:li>
            <rdf:li>computer</rdf:li>
            <rdf:li>desktop</rdf:li>
            <rdf:li>earth</rdf:li>
            <rdf:li>email.mail</rdf:li>
            <rdf:li>globe</rdf:li>
            <rdf:li>icon</rdf:li>
            <rdf:li>icons</rdf:li>
            <rdf:li>information</rdf:li>
            <rdf:li>interface</rdf:li>
            <rdf:li>lock</rdf:li>
            <rdf:li>messenger</rdf:li>
            <rdf:li>mobile</rdf:li>
            <rdf:li>network</rdf:li>
            <rdf:li>pc</rdf:li>
            <rdf:li>phone</rdf:li>
            <rdf:li>secure</rdf:li>
            <rdf:li>set</rdf:li>
            <rdf:li>shopping cart</rdf:li>
            <rdf:li>unlock</rdf:li>
            <rdf:li>web 2.0</rdf:li>
            <rdf:li>website</rdf:li>
          </rdf:Bag>
        </dc:subject>
      </cc:Work>
      <cc:License rdf:about="http://creativecommons.org/licenses/publicdomain/">
        <cc:permits rdf:resource="http://creativecommons.org/ns#Reproduction"/>
        <cc:permits rdf:resource="http://creativecommons.org/ns#Distribution"/>
        <cc:permits rdf:resource="http://creativecommons.org/ns#DerivativeWorks"/>
      </cc:License>
    </rdf:RDF>
  </metadata>
</svg>
